# xmcd
#
# Track frame offsets:
#	150
#	32880
#	43613
#	59470
#	66805
#	82853
#	94580
#	106788
#	145708
#	152790
#	168265
#	177113
#	191130
#	197098
#	203738
#	241703
#	267000
#	285573
#	291568
#
# Disc length: 4049 seconds
#
# Revision: 1
# Processed by: cddbd v1.5.1PL0 Copyright (c) Steve Scherf et al.
# Submitted via: CDex 1.50Beta5
#
DISCID=070fcf13
DTITLE=ジャン＝フランソワ・パイヤール／パイヤール室内管弦楽団 - バッハ：管弦楽組曲第１番、第２番、第３番
DYEAR=1976
DGENRE=Classical
TTITLE0=管弦楽組曲第１番ハ長調BWV.1066/1.序曲
TTITLE1=クーラント
TTITLE2=ガヴォット I,Ii
TTITLE3=フォルナーラ
TTITLE4=メヌエット I,Ii
TTITLE5=ブレーズ I,Ii
TTITLE6=パスピエ I,Ii
TTITLE7=管弦楽組曲第２番ロ短調BWV.1067/1.序曲
TTITLE8=ロンド
TTITLE9=サラバンド
TTITLE10=ブレーズ I,Ii
TTITLE11=ポロネーズ
TTITLE12=メヌエット
TTITLE13=バディネリ
TTITLE14=管弦楽組曲第３番ニ長調BWV.1068/1.序曲
TTITLE15=アリア
TTITLE16=ガヴォット I,Ii
TTITLE17=ブレー
TTITLE18=ジーグ
EXTD=
EXTT0=
EXTT1=
EXTT2=
EXTT3=
EXTT4=
EXTT5=
EXTT6=
EXTT7=
EXTT8=
EXTT9=
EXTT10=
EXTT11=
EXTT12=
EXTT13=
EXTT14=
EXTT15=
EXTT16=
EXTT17=
EXTT18=
PLAYORDER=
